<?xml version="1.0" standalone="no"?>
<!DOCTYPE svg PUBLIC "-//W3C//DTD SVG 20010904//EN"
 "http://www.w3.org/TR/2001/REC-SVG-20010904/DTD/svg10.dtd">
<svg version="1.0" xmlns="http://www.w3.org/2000/svg"
 width="183.000000pt" height="183.000000pt" viewBox="0 0 183.000000 183.000000"
 preserveAspectRatio="xMidYMid meet">
<metadata>
Created by potrace 1.14, written by Peter Selinger 2001-2017
</metadata>
<g transform="translate(0.000000,183.000000) scale(0.100000,-0.100000)"
fill="#000000" stroke="none">
<path d="M917 1733 c-11 -11 -8 -151 4 -158 6 -4 13 -5 15 -2 5 4 8 115 5 155
-1 13 -14 16 -24 5z"/>
<path d="M569 1610 c-9 -6 4 -26 47 -70 48 -49 62 -59 71 -48 8 10 -2 26 -47
69 -38 37 -62 54 -71 49z"/>
<path d="M1211 1559 c-28 -29 -51 -55 -51 -60 0 -24 22 -13 67 34 60 63 69 77
49 77 -8 0 -38 -23 -65 -51z"/>
<path d="M829 1420 c-103 -41 -168 -132 -176 -249 -6 -84 -23 -101 -65 -66
-16 14 -35 26 -41 26 -7 1 -22 3 -35 4 -13 1 -33 -8 -48 -24 -15 -14 -32 -26
-38 -26 -11 0 -42 -12 -106 -40 -55 -24 -115 -64 -118 -79 -7 -35 18 -48 85
-44 60 4 81 -3 47 -16 -11 -4 -14 -17 -12 -43 3 -40 0 -38 74 -42 14 0 23 -5
20 -9 -8 -14 33 -53 78 -73 72 -33 196 -19 247 27 18 16 21 16 79 -15 33 -18
64 -30 69 -26 5 3 12 1 16 -4 3 -6 12 -8 20 -4 8 3 15 0 15 -6 0 -6 -6 -11
-13 -11 -22 0 -15 -31 8 -40 21 -8 22 -15 22 -99 0 -85 -2 -92 -28 -117 l-27
-26 -6 29 c-16 70 -16 89 -5 133 16 63 6 98 -32 114 -17 7 -41 11 -53 9 -21
-4 -21 -8 -21 -146 0 -136 1 -142 21 -145 19 -3 21 2 20 50 -1 55 15 79 21 31
7 -53 20 -88 32 -86 6 2 11 1 11 -2 0 -14 -114 -171 -128 -176 -11 -4 -12 -8
-4 -13 9 -5 9 -13 1 -27 -24 -45 -21 -92 6 -103 11 -4 13 1 9 22 -3 15 0 41 7
57 7 17 13 34 13 38 1 5 8 14 16 20 8 7 16 20 18 30 2 10 17 37 33 60 16 23
40 57 52 74 25 37 47 50 47 27 0 -12 4 -12 20 -4 14 7 19 20 18 45 -1 25 5 39
22 53 16 13 20 21 12 26 -7 4 -12 2 -12 -3 0 -6 -4 -11 -10 -11 -6 0 -10 30
-10 70 0 63 2 70 20 70 13 0 20 7 20 20 0 16 -7 20 -37 21 -21 1 -41 1 -45 0
-5 0 -8 3 -8 8 0 5 19 11 42 15 22 4 61 20 85 36 45 30 63 37 63 22 0 -28 169
-78 210 -62 3 1 16 3 29 6 39 7 121 70 121 94 0 16 27 12 34 -5 7 -18 33 -20
38 -3 3 8 21 11 51 9 36 -2 49 1 53 14 11 29 -33 52 -66 35 -9 -5 -24 -1 -38
10 -28 23 -28 28 3 40 29 11 25 32 -16 77 -57 63 -124 99 -161 87 -12 -3 -18
3 -23 23 -10 43 -39 73 -73 73 -16 0 -35 -6 -41 -14 -6 -8 -20 -16 -31 -19
-21 -5 -24 0 -35 68 -14 83 -81 165 -162 201 -53 23 -150 25 -204 4z m-334
-533 c-15 -12 -21 -12 -37 2 -18 15 -18 16 9 22 36 7 53 -7 28 -24z m963 5
c-16 -18 -89 -53 -100 -46 -9 6 0 33 18 54 9 11 26 14 54 12 35 -4 39 -6 28
-20z m-651 -52 c39 -24 71 -31 140 -34 29 -1 55 -5 58 -8 4 -4 13 -4 21 -1 8
3 22 2 31 -1 33 -13 -20 -37 -112 -50 -29 -4 -100 20 -141 47 l-36 25 -41 -28
c-82 -55 -185 -55 -261 1 -22 16 -36 29 -30 30 5 0 16 2 25 4 9 1 39 -3 67
-10 66 -17 138 -7 210 31 34 17 31 18 69 -6z m128 11 c3 -5 2 -12 -2 -14 -12
-8 -63 4 -63 14 0 12 57 12 65 0z m529 -42 c-26 -28 -101 -61 -142 -62 -42 -1
-132 22 -132 33 0 15 56 28 110 26 30 -1 69 4 85 10 17 7 45 12 63 12 30 -1
31 -2 16 -19z m-606 -173 c5 -24 -6 -66 -17 -66 -12 0 -19 34 -14 64 6 29 26
30 31 2z"/>
<path d="M393 1347 c-13 -21 36 -26 155 -18 8 1 12 7 10 13 -5 15 -156 19
-165 5z"/>
<path d="M1299 1349 c-24 -15 1 -24 63 -23 102 2 108 3 103 17 -6 13 -146 19
-166 6z"/>
<path d="M683 702 c-17 -3 -23 -10 -24 -30 0 -15 -2 -34 -4 -42 -11 -55 -17
-90 -20 -124 -2 -21 -6 -49 -9 -62 -5 -17 -1 -26 13 -33 16 -9 20 -6 26 25 3
21 11 34 18 31 21 -8 9 -43 -48 -133 -46 -74 -60 -89 -83 -90 -46 -2 -49 -3
-69 -21 -10 -10 -14 -15 -8 -12 18 11 76 16 81 7 3 -4 -4 -21 -15 -37 -29 -40
-42 -79 -30 -86 5 -4 17 11 25 32 9 21 26 52 39 69 23 30 25 30 96 27 70 -4
93 9 26 14 -32 2 -89 10 -95 12 -1 0 6 10 16 21 10 11 25 33 33 48 8 15 24 38
37 52 12 14 22 28 22 32 0 5 12 8 26 8 23 0 25 3 20 35 -3 19 -9 52 -12 73 -3
20 -7 48 -10 62 -2 14 -7 43 -9 64 -7 51 -15 62 -42 58z m21 -150 c3 -23 1
-29 -9 -26 -8 4 -13 19 -12 39 2 40 16 32 21 -13z"/>
<path d="M1248 702 l-28 -3 0 -145 c0 -79 3 -144 8 -145 46 -5 75 -2 84 8 14
17 1 33 -28 33 -20 0 -24 5 -24 33 0 35 12 61 26 55 5 -1 10 7 12 20 3 17 -2
22 -17 22 -18 0 -21 6 -21 40 0 38 2 40 30 40 25 0 29 4 27 22 -4 22 -18 26
-69 20z"/>
<path d="M490 600 c0 -87 -2 -102 -17 -107 -31 -12 -91 -74 -111 -114 -25 -50
-21 -107 9 -131 28 -23 48 -23 22 0 -15 12 -20 28 -19 57 3 50 24 91 73 139
l38 37 3 -36 c2 -19 7 -35 13 -35 5 0 12 0 17 0 4 0 9 21 12 47 5 44 8 49 40
60 19 7 29 12 21 12 -9 1 -10 5 -4 14 17 21 24 83 13 113 -14 36 -26 44 -72
44 l-38 0 0 -100z m67 48 c12 -20 13 -40 2 -60 -17 -31 -29 -20 -29 27 0 44
11 57 27 33z"/>
<path d="M1059 693 c0 -5 0 -41 1 -82 1 -58 -1 -71 -12 -66 -10 6 -11 5 0 -6
6 -7 12 -38 12 -70 0 -32 4 -60 9 -63 16 -10 30 19 30 60 -1 21 -1 50 0 64 2
34 15 10 31 -58 7 -32 19 -56 31 -63 23 -12 21 -24 23 149 1 137 1 143 -18
140 -18 -3 -20 -11 -21 -70 0 -36 -3 -69 -6 -72 -3 -3 -6 0 -7 7 0 6 -3 19 -5
27 -2 8 -10 36 -17 63 -9 35 -17 47 -31 47 -11 0 -19 -3 -20 -7z"/>
<path d="M1348 688 c-4 -11 -3 -258 1 -281 0 -4 9 -4 19 2 12 7 17 22 17 58 0
47 18 73 23 33 1 -11 4 -30 6 -42 2 -13 4 -28 5 -34 0 -7 10 -14 22 -17 19 -5
20 -3 13 41 -8 45 -8 68 -2 175 2 39 -1 52 -16 63 -24 17 -82 18 -88 2z m70
-70 c2 -25 -2 -37 -12 -41 -16 -6 -19 3 -19 48 1 33 2 37 16 33 6 -3 13 -21
15 -40z"/>
<path d="M1510 397 c-8 -7 -28 -32 -44 -57 -16 -25 -37 -57 -48 -72 -10 -15
-18 -31 -18 -36 0 -5 -17 -26 -37 -47 -29 -29 -32 -34 -11 -21 26 17 27 17 30
-5 2 -12 8 -24 15 -26 7 -3 10 3 7 14 -8 29 8 60 80 160 36 51 66 94 66 98 0
9 -25 5 -40 -8z"/>
<path d="M517 349 c4 -13 8 -18 11 -10 2 7 -1 18 -6 23 -8 8 -9 4 -5 -13z"/>
<path d="M1142 335 c-12 -14 -30 -25 -40 -25 -26 0 -34 -11 -17 -24 12 -9 11
-17 -6 -51 -20 -40 -37 -116 -23 -103 4 4 14 2 22 -5 13 -10 14 -9 2 9 -11 18
-11 27 -1 52 7 17 11 33 10 34 -2 2 10 18 26 35 20 21 43 34 69 38 50 7 59 15
17 15 -28 0 -31 2 -21 19 13 26 13 31 -3 31 -7 0 -23 -11 -35 -25z"/>
<path d="M951 274 c-64 -68 -84 -133 -46 -148 10 -4 12 3 8 27 -4 26 2 41 29
74 39 50 55 58 74 39 17 -17 9 -41 -23 -76 -13 -14 -23 -28 -23 -32 0 -5 -6
-8 -14 -8 -15 0 -31 -18 -24 -26 8 -8 76 62 97 100 12 20 19 46 17 59 -3 12
-5 25 -5 30 -1 4 -12 7 -25 7 -15 0 -38 -16 -65 -46z"/>
<path d="M1309 291 c-19 -10 -56 -47 -83 -82 -27 -35 -43 -59 -36 -52 11 10
16 8 24 -9 6 -12 17 -23 25 -26 10 -3 11 0 5 9 -16 26 -13 42 16 84 35 51 48
61 83 70 33 9 36 -6 6 -36 -11 -11 -19 -23 -16 -25 6 -6 47 45 47 57 0 22 -38
28 -71 10z"/>
<path d="M492 280 c-7 -11 -27 -26 -45 -34 -17 -8 -26 -15 -19 -15 20 -1 67
28 80 50 7 11 9 19 4 19 -4 0 -13 -9 -20 -20z"/>
<path d="M1460 154 c-19 -14 -37 -27 -40 -31 -9 -11 44 20 69 38 35 28 12 21
-29 -7z"/>
<path d="M1150 139 c0 -5 5 -7 10 -4 6 3 10 8 10 11 0 2 -4 4 -10 4 -5 0 -10
-5 -10 -11z"/>
<path d="M1268 123 c7 -3 16 -2 19 1 4 3 -2 6 -13 5 -11 0 -14 -3 -6 -6z"/>
</g>
</svg>
